# xmcd
#
# Track frame offsets:
#       150
#       13113
#       41553
#       70330
#
# Disc length: 1237 seconds
#
# Revision: 1
# Processed by: cddbd v1.5.1PL2 Copyright (c) Steve Scherf et al.
# Submitted via: MusiCat 1.1
#
DISCID=2f04d304
DTITLE=Crazy Frog - Axel f
DYEAR=1900
DGENRE=
TTITLE0=Radio Edit
TTITLE1=Bounce mix
TTITLE2=Bounce mix instrumental
TTITLE3=Reservoir frog remix
EXTD=\n\n
EXTT0=
EXTT1=
EXTT2=
EXTT3=
PLAYORDER=
